<?xml version="1.0" encoding="utf-8"?>
<svg version="1.1" xmlns="http://www.w3.org/2000/svg" viewBox="0 0 512 512">
	<g fill="none" stroke="currentColor" stroke-width="16">
		<path d="M501.4,120.2H10.6c-0.6,0-1-0.4-1-1V29.5c0-0.6,0.4-1,1-1h490.8c0.6,0,1,0.4,1,1v89.6
			C502.4,119.7,502,120.2,501.4,120.2z"/>
		<path d="M482.8,483.5H28.7c-0.6,0-1-0.4-1-1V121.2c0-0.6,0.4-1,1-1h454.1c0.6,0,1,0.4,1,1v361.3
			C483.8,483,483.3,483.5,482.8,483.5z"/>
		<path d="M195.1,273.5h121.2c12.1,0,21.8,9.8,21.8,21.8v95.9c0,12.1-9.8,21.8-21.8,21.8H195.1
			c-12.1,0-21.8-9.8-21.8-21.8v-95.9C173.3,283.3,183.1,273.5,195.1,273.5z"/>
		<path d="M208.1,273.2l0.4-30c0-24.1,10.8-52.6,47.2-52.6c37.1,0,47.5,29.3,47.5,54.2c0,1.1,0,29.2,0,29.2"/>
	</g>
</svg>

