<?xml version="1.0" encoding="utf-8"?>
<svg version="1.1" xmlns="http://www.w3.org/2000/svg" viewBox="0 0 512 512">
<g fill="none" stroke="currentColor" stroke-width="17">
	<path d="M501.4,120.2H10.6c-0.6,0-1-0.4-1-1V29.5c0-0.6,0.4-1,1-1h490.8c0.6,0,1,0.4,1,1v89.6
		C502.4,119.7,502,120.2,501.4,120.2z"/>
	<path d="M320.1,246.9H191c-14.4,0-26-11.6-26-26v-2.9c0-14.4,11.6-26,26-26h129.1c14.4,0,26,11.6,26,26v2.9
		C346.1,235.3,334.5,246.9,320.1,246.9z"/>
	<path d="M482.8,483.5H28.7c-0.6,0-1-0.4-1-1V121.2c0-0.6,0.4-1,1-1h454.1c0.6,0,1,0.4,1,1v361.3
		C483.8,483,483.3,483.5,482.8,483.5z"/>
</g>
</svg>
