<?xml version="1.0" encoding="utf-8"?>
<svg version="1.1" xmlns="http://www.w3.org/2000/svg" xmlns:xlink="http://www.w3.org/1999/xlink" viewBox="0 0 142 142">
<g fill="none" stroke="currentColor" stroke-width="5">
<path d="M111.6,114.7v9.3c0,1.7-1.3,3-3,3H33.4c-1.7,0-3-1.3-3-3V17.6c0-1.7,1.3-3,3-3h10.3"/>
<path d="M99.1,127.2v9.7c0,1.7-1.3,3-3,3H20.9c-1.7,0-3-1.3-3-3V30.4c0-1.7,1.3-3,3-3h8.9"/>
<path d="M121.1,114.6H45.9c-1.7,0-3-1.3-3-3V5.1c0-1.7,1.3-3,3-3H104l20.1,18.7v90.8
	C124.1,113.3,122.8,114.6,121.1,114.6z"/>
<path d="M102.1,3.6c0,0,0,7.9,0,12.6s1.5,6.6,6,6.6c4.5,0,15.7,0,15.7,0"/>
</g>
<g fill="currentColor" stroke="none">
	<path d="M103.8,38c-5-5-13-5-18-0.1c0,0,0,0-0.1,0.1l-4.9,4.9c-0.7,0.8-0.7,2.1,0.1,2.8c0.8,0.7,1.9,0.7,2.6,0l4.9-4.9
		c3.5-3.4,9.1-3.4,12.5,0c3.5,3.4,3.5,9,0,12.5c0,0,0,0,0,0l-7,7c-3.5,3.4-9.1,3.4-12.5,0c-0.7-0.8-2-0.9-2.8-0.1
		c-0.8,0.7-0.9,2-0.1,2.8c0,0,0.1,0.1,0.1,0.1c5,5,13.1,5,18.1,0l7-7C108.8,51.2,108.9,43.1,103.8,38C103.9,38.1,103.9,38,103.8,38z"
		/>
	<path d="M83.6,70.7l-4.9,4.9c-3.5,3.4-9.1,3.3-12.5-0.3c-3.3-3.4-3.3-8.8,0-12.3l7-7c3.5-3.4,9.1-3.4,12.5,0
		c0.8,0.7,2.1,0.7,2.8-0.1c0.7-0.8,0.7-1.9,0-2.6c-5-5-13.1-5-18.1,0l-7,7c-5.2,4.8-5.4,12.9-0.6,18.1c4.8,5.2,12.9,5.4,18.1,0.6
		c0.2-0.2,0.4-0.4,0.6-0.6l4.9-4.9c0.7-0.8,0.7-2.1-0.1-2.8C85.5,70.1,84.4,70.1,83.6,70.7z"/>
</g>
</svg>
