<?xml version="1.0" encoding="utf-8"?>
<svg version="1.1" xmlns="http://www.w3.org/2000/svg" xmlns:xlink="http://www.w3.org/1999/xlink" viewBox="0 0 142 142">
<g fill="none" stroke="currentColor" stroke-width="5">
<path d="M111.6,114.7v9.3c0,1.7-1.3,3-3,3H33.4c-1.7,0-3-1.3-3-3V17.6c0-1.7,1.3-3,3-3h10.3"/>
<path d="M99.1,127.2v9.7c0,1.7-1.3,3-3,3H20.9c-1.7,0-3-1.3-3-3V30.4c0-1.7,1.3-3,3-3h8.9"/>
<path d="M121.1,114.6H45.9c-1.7,0-3-1.3-3-3V5.1c0-1.7,1.3-3,3-3H104l20.1,18.7v90.8
	C124.1,113.3,122.8,114.6,121.1,114.6z"/>
<path d="M102.1,3.6c0,0,0,7.9,0,12.6s1.5,6.6,6,6.6c4.5,0,15.7,0,15.7,0"/>
</g>
</svg>
