<?xml version="1.0" encoding="utf-8"?>
<svg version="1.1" xmlns="http://www.w3.org/2000/svg" xmlns:xlink="http://www.w3.org/1999/xlink" viewBox="0 0 128 128">
<path d="M110.9,128H17.1c-5.5,0-10-4.5-10-10V10.1c0-5.5,4.5-10,10-10h62.1c4.8,0,11.3,2.7,14.7,6.1L114.8,27
	c3.4,3.4,6.1,9.9,6.1,14.7V118C120.9,123.5,116.4,128,110.9,128z M17.1,4.7c-3,0-5.4,2.4-5.4,5.4V118c0,3,2.4,5.4,5.4,5.4h93.8
	c3,0,5.4-2.4,5.4-5.4V41.7c0-3.6-2.2-9-4.8-11.5L90.7,9.5C88.2,7,82.8,4.7,79.2,4.7H17.1z"/>
<path d="M110.9,36.4H94.6c-5.5,0-10-4.5-10-10V10.1c0-4.6,2.5-6.3,4.6-6.3c1.6,0,3.2,0.8,4.8,2.4L114.8,27c2.9,2.9,2.5,5.2,2.1,6.4
	C116.4,34.5,115,36.4,110.9,36.4z M89.4,8.5c-0.1,0.2-0.2,0.7-0.2,1.6v16.3c0,3,2.4,5.4,5.4,5.4h16.3c0.9,0,1.3-0.1,1.6-0.2
	c-0.1-0.2-0.4-0.7-1-1.3L90.7,9.5C90.1,8.8,89.7,8.6,89.4,8.5z"/>
</svg>