<?xml version="1.0" encoding="utf-8"?>
<!-- Generator: Adobe Illustrator 25.4.1, SVG Export Plug-In . SVG Version: 6.00 Build 0)  -->
<svg version="1.1" id="Layer_1" xmlns="http://www.w3.org/2000/svg" xmlns:xlink="http://www.w3.org/1999/xlink" x="0px" y="0px"
	 viewBox="0 0 256 256" style="enable-background:new 0 0 256 256;" xml:space="preserve">
<path d="M236,21.2c-26.4-26.5-69.3-26.7-95.8-0.3c-0.1,0.1-0.2,0.2-0.3,0.3L114,47.1c-3.9,4.3-3.6,10.9,0.7,14.8
	c4,3.6,10.1,3.6,14.1,0l25.9-25.9c18.4-18.3,48.2-18.3,66.6,0c18.4,18.3,18.5,48,0.2,66.4c-0.1,0.1-0.1,0.1-0.2,0.2l-37,37
	c-18.4,18.3-48.2,18.3-66.6,0c-3.9-4.3-10.5-4.6-14.8-0.7c-4.3,3.9-4.6,10.5-0.7,14.8c0.2,0.3,0.5,0.5,0.7,0.7
	c26.6,26.5,69.6,26.5,96.1,0l37-37c26.5-26.4,26.7-69.3,0.3-95.8C236.2,21.4,236.1,21.3,236,21.2z"/>
<path d="M128.8,195l-25.9,25.9c-18.8,18-48.6,17.3-66.6-1.4c-17.4-18.2-17.4-46.9,0-65.1l37-37c18.4-18.3,48.2-18.3,66.6,0
	c4.3,3.9,10.9,3.6,14.8-0.7c3.6-4,3.6-10.1,0-14.1c-26.6-26.5-69.6-26.5-96.1,0l-37,37c-27.4,25.7-28.8,68.7-3.1,96.1
	s68.7,28.8,96.1,3.1c1.1-1,2.1-2.1,3.1-3.1l25.9-25.9c3.9-4.3,3.6-10.9-0.7-14.8C138.8,191.4,132.7,191.4,128.8,195z"/>
</svg>
