<?xml version="1.0" encoding="utf-8"?>
<svg version="1.1" xmlns="http://www.w3.org/2000/svg" viewBox="0 0 141.7 141.7">
<g fill="currentColor">
	<path d="M99.5,103.3c-14.1,0-25.6-11.5-25.6-25.6s11.5-25.6,25.6-25.6s25.6,11.5,25.6,25.6S113.6,103.3,99.5,103.3z M99.5,56.4
		c-12.5,0-21.7,10-21.7,21.4s10.3,21.6,21.7,21.6s21.7-8.8,21.7-21.6C121.2,65.1,110.9,56.4,99.5,56.4z"/>
	<path d="M61.1,135.1c0-11,9.4-20.6,20.1-20.6h36.2c10.7,0,20.8,9.6,20.8,20.6v6.7h3.5v-6.7c0-13.7-10.9-24.9-24.3-24.9H81.2
		c-13.4,0-24.3,11.1-24.3,24.9v6.7h4.2V135.1z"/>
</g>
<g fill="none" stroke="currentColor" stroke-width="4">
<path d="M61.5,56.4h-6.9v7.9c0,0.8-0.9,1.2-1.5,0.6l-8.9-8.6H18.7c-2.3,0-4.2-1.9-4.2-4.2V18.2c0-2.3,1.9-4.2,4.2-4.2
	h42.8c2.3,0,4.2,1.9,4.2,4.2v33.9C65.7,54.5,63.8,56.4,61.5,56.4z"/>
</g>
</svg>
