<?xml version="1.0" encoding="utf-8"?>
<svg version="1.1" xmlns="http://www.w3.org/2000/svg" xmlns:xlink="http://www.w3.org/1999/xlink" viewBox="0 0 141.7 141.7">
<g fill="currentColor">
	<path d="M13,131.7c0-16.7,14.2-31.3,30.5-31.3h54.9c16.3,0,31.5,14.6,31.5,31.3v10.1h5.3v-10.1c0-20.8-16.5-37.8-36.8-37.8h-55
		c-20.3,0-36.8,16.9-36.8,37.8v10.1H13V131.7z"/>
	<path d="M39.9,54.1c-1-3-1.6-6.2-1.6-9.5c0-17.3,13.9-32.4,32.9-32.4c8.6,0,16.8,3.3,22.8,8.9l5.4-3.3
		C92.4,10.4,82.3,5.7,71.2,5.7C49.7,5.7,32.3,23,32.3,44.5c0,4.5,0.8,8.8,2.2,12.8L39.9,54.1z"/>
	<path d="M103.6,38.7c0.3,1.9,0.5,3.8,0.5,5.9c0,19.3-15.6,32.7-32.9,32.7c-7.2,0-14-2.6-19.6-7l-5.8,3.5
		c6.8,5.9,15.7,9.5,25.4,9.5c21.4,0,38.9-17.3,38.9-38.8c0-3.2-0.4-6.2-1.1-9.2L103.6,38.7z"/>
</g>
<g fill="none" stroke="currentColor" stroke-width="6">
	<line x1="135.5" y1="7.6" x2="6.3" y2="86.2"/>
	<line x1="135.5" y1="7.6" x2="6.3" y2="86.2"/>
</g>
</svg>
